<?xml version="1.0" encoding="utf-8"?>
<!-- Generator: Adobe Illustrator 19.0.0, SVG Export Plug-In . SVG Version: 6.00 Build 0)  -->
<svg version="1.1" id="Calque_1" xmlns="http://www.w3.org/2000/svg" xmlns:xlink="http://www.w3.org/1999/xlink" x="0px" y="0px"
	 viewBox="0 0 500 500" style="enable-background:new 0 0 500 500;" xml:space="preserve">
<style type="text/css">
	.st0{fill:#2F2F30;}
	.st1{fill:#FFFFFF;}
</style>
<circle id="XMLID_1_" class="st0" cx="248.5" cy="250" r="246"/>
<path id="XMLID_7_" class="st1" d="M362.4,154.5c-13.4,7.9-34.1,20.2-66.3,39.4c-20.2,12-35.9,21.5-48.8,29.1L200.1,251
	c-0.5,0.3-0.6,1-0.3,1.5l0.8,1.4c-0.3,0.3-0.7,0.6-1.3,0.9c-1.3,0.8-3.6,2.2-5,3.2c-1.4,0.9-3.4,2-4.3,2.5c-1.3,0.6-1.6,1.2-1.2,2.3
	c0.5,1.2-0.9,3.1-7.8,11.1c-4.6,5.3-8.8,9.8-9.3,10.1c-0.5,0.3-2.2,0.4-3.7,0.3c-2.7-0.2-3.1,0-8.8,4.3c-3.3,2.5-14.1,10.5-24,17.9
	c-19.6,14.5-27.7,20.7-27.9,21.5c-0.1,0.3,0.5,1.5,1.2,2.6c2.2,3.6,18.5,27.5,19.3,28.2c0.9,0.8,1.5,0.5,3.5-1.9
	c0.8-1.1,1.6-2.2,2.5-3.2l0,0c0.3-0.2,4.3-5.4,9-11.6c8.2-10.9,17.4-23.1,25.2-33.5c3.9-5.3,5.5-6.1,5.2-2.9c-0.2,2.7-0.1,2.8,3,2.5
	c7.2-0.5,12.5-2.8,11.2-4.9c-1.5-2.6-2.3-10-1.3-13.4c1.1-4.2,5.9-10.2,7.8-9.9c0.4,0,0.7,0.2,1.1,0.5c0.9,1.7,1.8,2.7,3,3.1
	c1.5,0.5,2.9,0,4.4-0.5c4.3-1.3,7.3-2.8,9.3-4.3c2-1.5,3-3.1,3.3-4.6c0.3-1.6-0.2-3.1-0.9-4.3c-0.7-1.2-1.6-2.1-2.4-2.8
	c3.4-2.3,19.6-12.2,39-23.9c21.7-13.1,40.7-24.7,42.1-25.7c2.8-1.8,4.1-4.1,3.3-5.5c-0.6-1,26.5-17.9,68.3-42.7
	c23-13.6,29.3-17.5,29-18.2c-0.9-1.9-5.4-8.7-6.4-9.6C386.5,140.6,384.7,141.4,362.4,154.5L362.4,154.5z M162.8,288.5
	c0.6-0.3,0,0.6-1.4,2.3c-2.9,3.5-4,4.4-16.6,13.4c-3.8,2.7-8.3,5.7-10,6.6c-3.3,1.8,1.2-1.8,17.2-14c4.7-3.6,9.4-7.3,10.4-8.1
	C162.6,288.7,162.7,288.6,162.8,288.5L162.8,288.5z M169.3,286.5c0.2-0.1,0.4,0,0.5,0.2c0.2,0.4-0.2,1.6-0.9,2.7
	c-1.8,2.9,0,1.7,3.1-2.2c2.6-3.2,2.7-3.2,1.9-1.2c-0.5,1.2-1.8,3.1-2.9,4.2c-3.2,3.4-6.1,5.7-6.9,5.5c-1-0.2-1.6-1.2-0.8-1.5
	c0.5-0.2,3.6-4.2,5.3-7C168.8,286.9,169,286.7,169.3,286.5L169.3,286.5z M205.5,270.6c1.6-0.9,5-1.7,6-1.2c0.6,0.3,1,0.7,1.4,1.1
	l0,0c0.3,0.5,0.5,1,0.6,1.5c0,0,0,0,0,0.1c0.2,0.7,0.1,1.4-0.1,2.2c0,0.1,0,0.1-0.1,0.2c0,0,0,0.1,0,0.1c-0.4,0.9-1.2,1.8-2.4,2.7
	c-0.2,0.2-0.5,0.4-0.7,0.5c-1.8,1.2-4.4,2.4-8.1,3.5c-1.6,0.5-2.6,0.8-3.5,0.5c-0.6-0.3-1.4-0.9-2.2-2.6c-0.1-1.1,0.1-2.2,0.7-2.5
	c0.3-0.2,1.1,0.9,1.7,2.4c0.4,0.8,0.6,1.2,0.7,1.4l0.2,0.6l0.8-0.3c-0.2-1.5-0.4-2.9-0.1-4.7l0.1-0.3c0.6-1,1.6-1.9,2.7-2.6
	c1-0.6,1.7-1.4,1.6-1.8C204.7,271.3,205,271,205.5,270.6L205.5,270.6z"/>
</svg>
